# xmcd CD database file
#
# Track frame offsets:
#	150
#	15564
#	30935
#	37795
#	55033
#
# Disc length: 938 seconds
#
# Revision: 2
# Processed by: cddbd v1.4PL0 Copyright (c) Steve Scherf et al.
# Submitted via: Feurio! 1.65 - http://www.feurio.com
#
DISCID=2703a805
DTITLE=Hertha BSC - Hey Hertha
DYEAR=2001
DGENRE=Fuﬂball-Hymne
TTITLE0=Hertha Fan-Chor feat. REMO - Radio Version
TTITLE1=Hertha Fan-Chor feat. REMO - Stadion Version
TTITLE2=Hertha Fan-Chor feat. REMO - Spot
TTITLE3=Hertha Fan-Chor feat. REMO - Dance Mix
TTITLE4=Hertha Fan-Chor feat. REMO - Karaoke Version
EXTD=Coverversion des DJ ÷TZI - Hit's\r\n"Hey Baby!"
EXTT0=
EXTT1=
EXTT2=
EXTT3=
EXTT4=
PLAYORDER=
